<?xml version="1.0" encoding="utf-8"?>
<svg width="23" height="23" viewBox="0 0 23 23" fill="none" xmlns="http://www.w3.org/2000/svg">
  <path d="M11.5 0C5.15465 0 0 5.15465 0 11.5C0 17.8454 5.15465 23 11.5 23C17.8454 23 23 17.8454 23 11.5C23 5.15465 17.8454 0 11.5 0C11.5 0 11.5 0 11.5 0ZM11.5 1C17.3049 1 22 5.69508 22 11.5C22 17.3049 17.3049 22 11.5 22C5.69509 22 1 17.3049 1 11.5C1 5.69508 5.69509 1 11.5 1C11.5 1 11.5 1 11.5 1ZM17.5195 4.49512C17.3725 4.49088 17.231 4.55161 17.1328 4.66113C17.1328 4.66113 12.0918 10.1221 12.0918 10.1221C11.9049 10.0417 11.7035 10.0001 11.5 10C10.6716 10 10 10.6716 10 11.5C10 12.3284 10.6716 13 11.5 13C11.5838 13.0002 11.6674 12.9933 11.75 12.9795C11.75 12.9795 13.5625 16.2432 13.5625 16.2432C13.6968 16.4848 14.0015 16.5718 14.2432 16.4375C14.4848 16.3032 14.5718 15.9985 14.4375 15.7568C14.4375 15.7568 12.623 12.4922 12.623 12.4922C12.8654 12.2185 12.9995 11.8656 13 11.5C13 11.2567 12.9404 11.0163 12.8265 10.8004C12.8265 10.8004 17.8672 5.33887 17.8672 5.33887C18.0027 5.19585 18.0416 4.9866 17.9665 4.80443C17.8915 4.62227 17.7165 4.50116 17.5195 4.49512C17.5195 4.49512 17.5195 4.49512 17.5195 4.49512Z" fill="#FFFFFF" />
</svg>